<svg width="64" height="64" viewBox="0 0 64 64" fill="none" xmlns="http://www.w3.org/2000/svg">
<path fill-rule="evenodd" clip-rule="evenodd" d="M32.0697 0.569767C14.6739 0.569767 0.569763 15.0283 0.569763 32.8674C0.569763 47.1375 9.59449 59.2437 22.1105 63.5151C23.6855 63.8138 24.2629 62.8153 24.2629 61.9621C24.2629 61.1923 24.2341 58.6489 24.2209 55.9494C15.4587 57.9034 13.6081 52.1382 13.6081 52.1382C12.1749 48.4052 10.1116 47.412 10.1116 47.412C7.253 45.4069 10.3269 45.45 10.3269 45.45C13.49 45.6787 15.1542 48.7793 15.1542 48.7793C17.963 53.7155 22.5226 52.289 24.3207 51.4627C24.6042 49.3741 25.4206 47.9503 26.3209 47.1429C19.3253 46.3274 11.9701 43.5579 11.9701 31.1825C11.9701 27.6567 13.2012 24.7741 15.2172 22.5133C14.8891 21.6978 13.8102 18.4142 15.5217 13.9652C15.5217 13.9652 18.1677 13.0985 24.1868 17.2757C26.6989 16.5598 29.3922 16.2018 32.0697 16.1883C34.7472 16.2018 37.443 16.5598 39.9604 17.2757C45.9716 13.0958 48.615 13.9652 48.615 13.9652C50.3291 18.4142 49.2503 21.6978 48.9248 22.5133C50.9434 24.7741 52.1666 27.6567 52.1666 31.1825C52.1666 43.5875 44.7983 46.3193 37.7843 47.1187C38.913 48.1199 39.921 50.0874 39.921 53.0991C39.921 57.4216 39.8843 60.899 39.8843 61.9621C39.8843 62.8207 40.4513 63.83 42.0473 63.5124C54.558 59.2356 63.5722 47.1348 63.5722 32.87C63.5696 15.031 49.4655 0.569767 32.0697 0.569767Z" fill="#EDECE7"/>
</svg>
