<svg width="65" height="55" viewBox="0 0 65 55" fill="none" xmlns="http://www.w3.org/2000/svg">
<path d="M62.0094 53.089H62.6154L61.4541 51.3324C62.1642 51.3324 62.5407 50.8812 62.546 50.3286C62.546 50.3072 62.546 50.2832 62.5433 50.2618C62.5433 49.509 62.0895 49.1485 61.1578 49.1485H59.652V53.089H60.218V51.3724H60.9148L62.0094 53.089ZM60.8748 50.9266H60.218V49.5944H61.051C61.4808 49.5944 61.972 49.6638 61.972 50.2271C61.972 50.8732 61.4755 50.9266 60.8721 50.9266" fill="#EDECE7"/>
<path d="M46.7625 46.3854H38.7347V33.8137C38.7347 30.8157 38.6813 26.9579 34.5592 26.9579C30.3785 26.9579 29.7377 30.223 29.7377 33.5975V46.3854H21.7126V20.5319H29.42V24.0639H29.5268C31.0993 21.3782 34.02 19.7737 37.1302 19.8885C45.2675 19.8885 46.7652 25.2413 46.7652 32.2012L46.7625 46.3854ZM12.6542 16.9972C10.0806 16.9972 7.9956 14.9122 7.9956 12.3386C7.9956 9.76496 10.0806 7.67991 12.6542 7.67991C15.2279 7.67991 17.3129 9.76496 17.3129 12.3386C17.3129 14.9122 15.2279 16.9972 12.6542 16.9972ZM16.6668 46.3854H8.63099V20.5319H16.6668V46.3854ZM50.7644 0.226072H4.59705C2.4159 0.202045 0.627192 1.95071 0.600494 4.13186V50.4888C0.627192 52.6726 2.4159 54.4213 4.59705 54.3972H50.7644C52.9509 54.4239 54.7476 52.6753 54.777 50.4888V4.12919C54.7449 1.9427 52.9482 0.194035 50.7644 0.223402" fill="#EDECE7"/>
<path d="M60.944 47.3945C58.9043 47.4132 57.2651 49.0845 57.2865 51.1241C57.3051 53.1638 58.9764 54.803 61.016 54.7816C63.0557 54.763 64.6949 53.0917 64.6736 51.0521C64.6549 49.0391 63.0263 47.4132 61.016 47.3945H60.944ZM61.0294 54.3572C59.2407 54.3865 57.6816 52.9636 57.6522 51.1749C57.6228 49.3862 59.0485 47.9125 60.8372 47.8831C62.6259 47.8537 64.0996 49.2794 64.1289 51.0681C64.1289 51.0868 64.1289 51.1028 64.1289 51.1215C64.1663 52.8701 62.7781 54.3198 61.0294 54.3572H60.9466H61.0294Z" fill="#EDECE7"/>
</svg>
