<svg width="27" height="40" viewBox="0 0 27 40" fill="none" xmlns="http://www.w3.org/2000/svg">
<path d="M18.4085 0.00125001C18.3635 -0.000416671 8.30342 -0.000416671 8.25842 0.00125001C3.69837 0.0412504 0 3.76462 0 8.333V31.6666C0 36.2616 3.73837 40 8.33342 40H18.3335C22.9286 40 26.6669 36.2616 26.6669 31.6666V8.33467C26.6669 3.76462 22.9686 0.0429171 18.4085 0.00125001ZM23.3336 31.6666C23.3336 34.4233 21.0902 36.6666 18.3335 36.6666H8.33342C5.57672 36.6666 3.33337 34.4233 3.33337 31.6666V8.33467C3.33337 5.91298 5.06339 3.88962 7.35174 3.43129L8.50842 5.74631C8.79009 6.31132 9.36843 6.66799 10.0001 6.66799H16.6668C17.2985 6.66799 17.8752 6.31132 18.1585 5.74631L19.3152 3.43129C21.6036 3.88796 23.3336 5.91298 23.3336 8.33467V31.6682V31.6666ZM15.0002 33.3333H11.6668C10.7468 33.3333 10.0001 32.5866 10.0001 31.6666C10.0001 30.7466 10.7468 29.9999 11.6668 29.9999H15.0002C15.9202 29.9999 16.6668 30.7466 16.6668 31.6666C16.6668 32.5866 15.9202 33.3333 15.0002 33.3333Z" fill="#192E35"/>
</svg>
