<svg width="40" height="40" viewBox="0 0 40 40" fill="none" xmlns="http://www.w3.org/2000/svg">
<path d="M6.66667 33.3333C2.99 33.3333 0 30.3433 0 26.6667V6.66667C0 2.99 2.99 0 6.66667 0C10.3433 0 13.3333 2.99 13.3333 6.66667V26.6667C13.3333 30.3433 10.3433 33.3333 6.66667 33.3333ZM31.6667 3.33333H16.095C16.465 4.37667 16.6667 5.49833 16.6667 6.66667V26.6667C16.6667 32.1817 12.1817 36.6667 6.66667 36.6667C4.34667 36.6667 2.21 35.8733 0.511667 34.5433C1.685 37.725 4.74833 40 8.33333 40H31.6667C36.2617 40 40 36.2617 40 31.6667V11.6667C40 7.07167 36.2617 3.33333 31.6667 3.33333ZM21.6667 33.3333C20.7467 33.3333 20 32.5867 20 31.6667C20 30.7467 20.7467 30 21.6667 30C22.5867 30 23.3333 30.7467 23.3333 31.6667C23.3333 32.5867 22.5867 33.3333 21.6667 33.3333ZM21.6667 26.6667C20.7467 26.6667 20 25.92 20 25C20 24.08 20.7467 23.3333 21.6667 23.3333C22.5867 23.3333 23.3333 24.08 23.3333 25C23.3333 25.92 22.5867 26.6667 21.6667 26.6667ZM21.6667 20C20.7467 20 20 19.2533 20 18.3333C20 17.4133 20.7467 16.6667 21.6667 16.6667C22.5867 16.6667 23.3333 17.4133 23.3333 18.3333C23.3333 19.2533 22.5867 20 21.6667 20ZM28.3333 33.3333C27.4133 33.3333 26.6667 32.5867 26.6667 31.6667C26.6667 30.7467 27.4133 30 28.3333 30C29.2533 30 30 30.7467 30 31.6667C30 32.5867 29.2533 33.3333 28.3333 33.3333ZM28.3333 26.6667C27.4133 26.6667 26.6667 25.92 26.6667 25C26.6667 24.08 27.4133 23.3333 28.3333 23.3333C29.2533 23.3333 30 24.08 30 25C30 25.92 29.2533 26.6667 28.3333 26.6667ZM28.3333 20C27.4133 20 26.6667 19.2533 26.6667 18.3333C26.6667 17.4133 27.4133 16.6667 28.3333 16.6667C29.2533 16.6667 30 17.4133 30 18.3333C30 19.2533 29.2533 20 28.3333 20ZM35 33.3333C34.08 33.3333 33.3333 32.5867 33.3333 31.6667C33.3333 30.7467 34.08 30 35 30C35.92 30 36.6667 30.7467 36.6667 31.6667C36.6667 32.5867 35.92 33.3333 35 33.3333ZM35 26.6667C34.08 26.6667 33.3333 25.92 33.3333 25C33.3333 24.08 34.08 23.3333 35 23.3333C35.92 23.3333 36.6667 24.08 36.6667 25C36.6667 25.92 35.92 26.6667 35 26.6667ZM35 20C34.08 20 33.3333 19.2533 33.3333 18.3333C33.3333 17.4133 34.08 16.6667 35 16.6667C35.92 16.6667 36.6667 17.4133 36.6667 18.3333C36.6667 19.2533 35.92 20 35 20ZM26.6667 11.6667C25.7467 11.6667 25 10.92 25 10V6.66667H31.6667C34.4233 6.66667 36.6667 8.91 36.6667 11.6667H26.6667Z" fill="#192E35"/>
</svg>
